<svg width="16" height="16" viewBox="0 0 16 16" fill="none" xmlns="http://www.w3.org/2000/svg">
<g clip-path="url(#clip0_4_228)">
<path d="M8.27601 3.33333H14C14.1768 3.33333 14.3464 3.40357 14.4714 3.5286C14.5964 3.65362 14.6667 3.82319 14.6667 4V13.3333C14.6667 13.5101 14.5964 13.6797 14.4714 13.8047C14.3464 13.9298 14.1768 14 14 14H2.00001C1.8232 14 1.65363 13.9298 1.52861 13.8047C1.40358 13.6797 1.33334 13.5101 1.33334 13.3333V2.66667C1.33334 2.48986 1.40358 2.32029 1.52861 2.19526C1.65363 2.07024 1.8232 2 2.00001 2H6.94268L8.27601 3.33333ZM2.66668 3.33333V12.6667H13.3333V4.66667H7.72401L6.39068 3.33333H2.66668ZM7.33334 6H8.66668V11.3333H7.33334V6ZM10 8H11.3333V11.3333H10V8ZM4.66668 9.33333H6.00001V11.3333H4.66668V9.33333Z" fill="#AF3AFF"/>
</g>
<defs>
<clipPath id="clip0_4_228">
<rect width="16" height="16" fill="white"/>
</clipPath>
</defs>
</svg>
